# xmcd
#
# Track frame offsets:
#	150
#	12860
#	35279
#	54527
#	78375
#	115632
#	142034
#	159746
#	189113
#	210032
#	235395
#	261367
#	283066
#
# Disc length: 3985 seconds
# Revision: 0
# Processed by: cddbd v1.5.2PL0 Copyright (c) Steve Scherf et al.
# Submitted via: dBpowerAMP V12.0
#
DISCID=a90f8f0d
DTITLE=Willie "Big Eyes" Smith And Roger "Hurricane" Wilson - Live Blues Protected By Smith and Wilson
DYEAR=2012
DGENRE=Blues
TTITLE0=Eyesight To The Blind
TTITLE1=I Just Want To Be Your Man
TTITLE2=Born In Arkansas
TTITLE3=Long Distance Call
TTITLE4=You Do Your Job
TTITLE5=Got My Mojo Workin'
TTITLE6=Dreamin'
TTITLE7=Scratch My Back
TTITLE8=How Long Blues
TTITLE9=Hoochie Coochie Man
TTITLE10=Can't Be Satisfied
TTITLE11=Rub My Back
TTITLE12=Willie's Boogie Finale
EXTD=
EXTT0=
EXTT1=
EXTT2=
EXTT3=
EXTT4=
EXTT5=
EXTT6=
EXTT7=
EXTT8=
EXTT9=
EXTT10=
EXTT11=
EXTT12=
PLAYORDER=
